Patient4_TMGait_0pt7_02_left_12_EMG.mot
version=1
nRows=16
nColumns=33
inDegrees=no
endheader
time	1LAddLong	2LGlutMax	3LGlutMed	4LIliopsoas	5LSemiMemb	6LBicFemLong	7LRecFem	8LVastMed	9LVastLat	10LGasMed	11LTibAnt	12lTibPost	13LPeroneusLong	14LSol	15LExtDigLong	16LFlexDigLong	17RAddLong	18RGlutMax	19RGlutMed	20RIliopsoas	21RSemiMemb	22RBicFemLong	23RRecFem	24RVastMed	25RVastLat	26RGasMed	27RTibAnt	28RTibPost	29RPeroneusLong	30RSol	31RExtDigLong	32RFlexDigLong
14.605	0.002289	-0.11734	0.058594	0.009918	-0.02243	-0.037842	-0.041351	0.011292	0.061188	-0.053406	0.025635	-0.000916	0.071411	-0.018311	0.13962	0.005188	0.001221	-0.20477	-0.27847	-0.018005	-0.042114	-0.051727	-0.08194	-0.002899	0.036163	0.000763	0.13001	-0.002594	-0.19394	-0.005188	-0.002441	-0.005035
14.606	0.025787	-0.090942	-0.010071	0.014648	-0.006561	-0.038605	-0.050201	0.01236	0.054169	-0.012817	0.007477	0.005188	0.081635	-0.029602	-0.15533	0.007629	-0.006104	-0.18112	0.13382	-0.097961	0.02594	-0.056763	-0.13016	0.007019	-0.044861	0.010529	0.16663	-0.003357	-0.09491	-0.16312	-0.005493	-0.011902
14.607	0.001373	-0.085449	0.002899	0.023956	-0.039063	-0.037842	-0.039063	0.017242	0.051575	-0.01358	-0.080109	0.001373	0.092468	-0.023193	-0.019989	0.000763	-0.004883	-0.20233	0.56335	-0.13062	0.15762	-0.026855	-0.14801	-0.094147	-0.093536	0.014801	0.059814	-0.005035	1.0503	-0.10529	-0.000153	-0.003815
14.608	0.014496	-0.086365	-0.031586	0.023651	-0.032806	-0.061493	-0.026703	0.021667	0.044556	-0.012665	-0.05188	-0.014191	0.14404	-0.004272	0.15717	0.007782	0.023499	-0.25131	0.58075	-0.094299	0.15106	0.004272	-0.14328	-0.12619	-0.017395	0.003967	0.048828	-0.003357	0.16739	-0.15076	-0.000916	-0.004425
14.609	-0.002594	-0.088501	-0.066376	0.016479	-0.013885	-0.062714	-0.041046	0.012054	0.054321	0.002594	-0.007324	-0.003204	0.14801	0.015869	0.094757	0.009155	0.034485	-0.26718	-0.35019	0.057831	0.10101	-0.021667	-0.097046	-0.051727	0.027924	-0.002747	-0.046692	-0.004272	-0.005035	-0.17075	-0.001221	-0.00946
14.61	0.006256	-0.085602	-0.064545	-0.002747	0.027924	-0.055847	-0.042267	0.011749	0.05188	0.011749	0.10223	0.011444	0.1297	0.00946	-0.019531	0.005798	0.028687	-0.21942	-0.69733	0.18997	0.027771	-0.01236	-0.021515	-0.10574	0.075531	-0.012207	0.29343	-0.006409	0.078583	0.085602	-0.004272	-0.013885
14.611	0.018616	-0.065155	-0.012207	-0.016937	0.031281	-0.022736	-0.043793	0.010986	0.056458	-0.02182	0.18097	0.006561	0.13184	0.001831	-0.13794	0.005035	0.00946	-0.22934	-0.55374	0.1181	-0.025024	-0.014343	-0.090179	0.003815	0.37857	-0.010529	0.43991	-0.013885	-0.36606	0.13825	-0.001068	-0.003815
14.612	0.00824	-0.074921	-0.027771	0.007019	0.013733	-0.003052	-0.044098	0.01236	0.031891	-0.040741	0.17044	-0.002747	0.096436	-0.021515	-0.087128	0.01297	-0.006409	-0.103	0.17929	-0.063782	-0.20874	0.022583	-0.03952	0.011139	0.42954	-0.012207	-0.095825	-0.002899	-0.42877	0.14679	0.000458	-0.012665
14.613	0.014648	-0.0737	-0.062561	0.01358	0.011292	0.0354	-0.05661	0.003815	0.036621	-0.038452	0.02121	-0.007782	0.061188	-0.053711	-0.049744	0.028687	-0.008545	-0.13382	0.63553	-0.032043	-0.28183	0.073395	0.066681	-0.11322	0.28	-0.007324	-0.16602	-0.005035	-0.43488	0.060577	-0.004272	-0.00824
14.614	0.010986	-0.053253	-0.10239	0.00412	-0.009613	0.045319	-0.060577	0.006866	0.033722	-0.031891	-0.090637	-0.015411	0.076294	-0.052948	-0.049438	-0.003204	-0.027008	-0.13641	0.71304	0.031281	-0.25513	0.033875	-0.005951	-0.12222	0.14069	-0.002136	-0.45746	-0.000458	-0.25269	0.026093	-0.001984	-0.004425
14.615	-0.013733	-0.068359	-0.13306	-0.006714	-0.032196	-0.01297	-0.048828	0.014954	0.02655	-0.032959	-0.11276	-0.00946	0.086975	-0.061951	-0.050049	0.001221	-0.017853	-0.16876	-0.20798	0.11261	0.23697	0.015106	0.052795	-0.15686	0.037537	-0.012665	-0.24689	0.002136	-0.12268	0.048676	0.001221	-0.004578
14.616	-0.005341	-0.06958	-0.088196	-0.006714	-0.015106	0.003662	-0.042725	0.019836	0.025787	-0.031433	-0.056305	-0.009766	0.094757	-0.050354	-0.055084	0.003662	-0.024414	-0.23956	-0.41596	0.060883	0.22354	0.006256	0.00351	-0.039673	0.06546	-0.007629	0.52704	0.021057	0.082703	0.007172	-0.004425	-0.007935
14.617	-0.012054	-0.073547	-0.025482	0.019073	-0.021667	-0.00824	-0.034332	0.019531	0.003204	-0.024414	-0.018921	0.005493	0.093842	-0.028992	-0.05722	-0.000763	-0.041504	-0.13275	-0.010986	0.002289	0.070343	0.06073	-0.058899	0.19836	-0.003967	-0.000458	0.72861	0.060272	0.50751	-0.022125	-0.004883	0.000458
14.618	-0.009155	-0.0354	-0.008392	-0.003967	-0.014954	-0.005646	-0.057068	0.027618	0.014496	-0.022125	-0.005188	-0.02243	0.091858	-0.015106	-0.014954	-0.012817	-0.041199	-0.10086	0.54153	-0.029907	0.006104	0.071564	0.085754	0.36179	0.082855	-0.011597	0.42679	-0.28839	-0.1001	-0.056152	-0.005493	-0.017395
14.619	-0.003662	-0.055847	-0.047455	0.005341	-0.040588	-0.030823	-0.049591	0.016174	0.017242	-0.021057	0	0.006714	0.091858	-0.022583	0.026398	-0.009003	-0.025635	-0.11932	0.37125	-0.05188	0.039825	0.020752	0.052948	0.097961	-0.010071	-0.025024	0.46417	0.041809	-0.85266	0.019073	-0.006866	-0.01297
14.62	-0.007324	-0.036926	-0.13077	0.01358	-0.03006	-0.037842	-0.075836	-0.000916	0.02533	-0.04364	0.001068	-0.009766	0.091248	-0.017395	0.038757	0.000153	-0.018463	-0.05188	0.10986	-0.11124	0.031891	-0.00412	0.034332	0.021057	0.33096	-0.030365	0.45761	0.088959	-0.74814	0.1091	-0.009003	-0.004578
